HIERARCHY
ROOT SpineBase
{
  OFFSET 0.000000 0.000000 0.000000
  CHANNELS 6 Xposition Yposition Zposition Zrotation Xrotation Yrotation
  JOINT SpineMid
  {
    OFFSET 0.000000 31.632035 0.000000
    CHANNELS 3 Zrotation Xrotation Yrotation
    JOINT SpineShoulder
    {
      OFFSET -0.001495 23.466357 -0.839414
      CHANNELS 3 Zrotation Xrotation Yrotation
      JOINT Neck
      {
        OFFSET 0.005403 7.773774 -0.604305
        CHANNELS 3 Zrotation Xrotation Yrotation
        JOINT Head
        {
          OFFSET -5.423873 12.639644 0.945425
          CHANNELS 3 Zrotation Xrotation Yrotation
          End Site
          {
            OFFSET 0 0 0
          }
        }
      }
      JOINT ShoulderLeft
      {
        OFFSET -15.211040 -4.951365 8.110830
        CHANNELS 3 Zrotation Xrotation Yrotation
        JOINT ElbowLeft
        {
          OFFSET -1.992780 -23.133276 3.416314
          CHANNELS 3 Zrotation Xrotation Yrotation
          JOINT WristLeft
          {
            OFFSET -0.846911 -22.686284 -1.298665
            CHANNELS 3 Zrotation Xrotation Yrotation
            JOINT HandLeft
            {
              OFFSET 0.845952 -8.930663 5.332165
              CHANNELS 3 Zrotation Xrotation Yrotation
              JOINT HandTipLeft
              {
                OFFSET 0.492470 -6.281740 0.230829
                CHANNELS 3 Zrotation Xrotation Yrotation
                End Site
                {
                  OFFSET 0 0 0
                }
              }
              JOINT ThumbLeft
              {
                OFFSET 0.518816 -3.576409 -2.997371
                CHANNELS 3 Zrotation Xrotation Yrotation
                End Site
                {
                  OFFSET 0 0 0
                }
              }
            }
          }
        }
      }
      JOINT ShoulderRight
      {
        OFFSET 12.450208 -3.803010 -9.002508
        CHANNELS 3 Zrotation Xrotation Yrotation
        JOINT ElbowRight
        {
          OFFSET 7.770291 -26.929578 -4.381274
          CHANNELS 3 Zrotation Xrotation Yrotation
          JOINT WristRight
          {
            OFFSET 1.273140 -20.978551 -6.329429
            CHANNELS 3 Zrotation Xrotation Yrotation
            JOINT HandRight
            {
              OFFSET -1.232527 -5.983077 0.215354
              CHANNELS 3 Zrotation Xrotation Yrotation
              JOINT HandTipRight
              {
                OFFSET -0.417643 -7.805722 0.126211
                CHANNELS 3 Zrotation Xrotation Yrotation
                End Site
                {
                  OFFSET 0 0 0
                }
              }
              JOINT ThumbRight
              {
                OFFSET -3.435510 0.987220 -0.951337
                CHANNELS 3 Zrotation Xrotation Yrotation
                End Site
                {
                  OFFSET 0 0 0
                }
              }
            }
          }
        }
      }
    }
  }
  JOINT HipLeft
  {
    OFFSET -6.495889 0.103850 -0.442956
    CHANNELS 3 Zrotation Xrotation Yrotation
    JOINT KneeLeft
    {
      OFFSET 2.982793 -38.533505 6.727475
      CHANNELS 3 Zrotation Xrotation Yrotation
      JOINT AnkleLeft
      {
        OFFSET 5.436133 -34.641867 8.271360
        CHANNELS 3 Zrotation Xrotation Yrotation
        JOINT FootLeft
        {
          OFFSET -2.963579 -7.969041 -4.791099
          CHANNELS 3 Zrotation Xrotation Yrotation
          End Site
          {
            OFFSET 0 0 0
          }
        }
      }
    }
  }
  JOINT HipRight
  {
    OFFSET 6.883258 1.680388 -6.557264
    CHANNELS 3 Zrotation Xrotation Yrotation
    JOINT KneeRight
    {
      OFFSET 9.158414 -34.709095 -2.095555
      CHANNELS 3 Zrotation Xrotation Yrotation
      JOINT AnkleRight
      {
        OFFSET 9.526030 -37.409565 8.737159
        CHANNELS 3 Zrotation Xrotation Yrotation
        JOINT FootRight
        {
          OFFSET -0.108851 -8.344715 -5.295634
          CHANNELS 3 Zrotation Xrotation Yrotation
          End Site
          {
            OFFSET 0 0 0
          }
        }
      }
    }
  }
}
MOTION
Frames: 5
Frame Time: 0.033333
-27.159651 84.157519 329.037244 5.158140 -4.395555 29.321309 -0.396592 0.573821 -28.949597 -0.360585 0.059757 0.174986 3.819425 1.570486 -2.166343 0.000000 0.000000 0.000000 -2.869147 2.482866 0.072063 -1.271153 1.574343 -0.306221 -14.190362 40.603403 1.011478 18.319716 -33.335345 11.556912 0.000000 0.000000 0.000000 0.000000 0.000000 0.000000 3.101355 3.214157 -2.021900 -1.581767 -1.205619 -0.370369 11.876833 6.411752 0.402390 -12.924499 -1.319444 -0.264472 0.000000 0.000000 0.000000 0.000000 0.000000 0.000000 1.435307 9.175567 -28.835907 3.319220 -2.051982 1.157230 -6.050299 14.715004 -6.706643 0.000000 0.000000 0.000000 0.040815 7.401171 -28.827779 -4.811253 -1.095776 -1.088482 9.463022 1.550667 -3.440490 0.000000 0.000000 0.000000
-26.194894 84.166631 328.273479 4.095008 -5.124066 28.248673 -0.341551 0.433218 -27.921729 -0.309662 0.000758 0.142518 2.757365 1.956921 -2.151936 0.000000 0.000000 0.000000 -2.603252 3.518047 0.051765 -0.910982 0.630918 -0.160362 -12.123304 37.626025 0.609234 15.918857 -28.979422 9.669830 0.000000 0.000000 0.000000 0.000000 0.000000 0.000000 2.835141 3.395459 -1.960271 -0.977984 -1.202665 -0.234626 12.454142 8.523911 -0.451304 -11.581628 -2.779347 0.052882 0.000000 0.000000 0.000000 0.000000 0.000000 0.000000 1.467903 9.337121 -27.899890 3.970291 -2.283210 1.183709 -1.867929 8.331133 -6.822783 0.000000 0.000000 0.000000 -0.405425 7.394747 -27.790307 -3.603501 -0.581583 -0.993082 11.453148 -1.678933 -4.343883 0.000000 0.000000 0.000000
-25.167340 84.163796 327.614528 3.307261 -5.936627 27.327276 -0.271047 0.260830 -27.035020 -0.238303 -0.071480 0.122362 1.777882 2.228391 -2.271956 0.000000 0.000000 0.000000 -2.219455 4.445574 0.078205 -1.262817 -1.307941 -0.038231 -10.055335 34.837398 0.205523 15.499048 -24.545987 8.830403 0.000000 0.000000 0.000000 0.000000 0.000000 0.000000 2.511083 3.603796 -1.994283 -0.677563 -0.908415 -0.019015 12.497338 10.496412 -1.260794 -10.860877 -5.361644 0.481100 0.000000 0.000000 0.000000 0.000000 0.000000 0.000000 1.773373 9.542921 -27.078677 2.735082 -1.917308 0.786347 2.641163 1.931381 -5.862670 0.000000 0.000000 0.000000 -0.696492 7.709449 -26.872198 -2.860853 -0.258912 -1.019826 8.324533 6.649191 -2.426686 0.000000 0.000000 0.000000
-24.301929 84.124787 327.221501 2.572003 -7.060331 26.760150 -0.562917 -0.047128 -26.491639 -0.220381 -0.171575 0.092083 0.894034 3.162834 -2.345374 0.000000 0.000000 0.000000 -1.440688 5.431363 0.167046 -1.739912 -2.936694 0.022236 -8.177240 31.864460 -0.279551 15.372376 -18.900906 8.090329 0.000000 0.000000 0.000000 0.000000 0.000000 0.000000 2.618118 4.235089 -2.145714 -0.921475 -0.515987 0.400773 12.662078 11.979776 -1.963966 -10.830183 -5.775448 0.556689 0.000000 0.000000 0.000000 0.000000 0.000000 0.000000 2.446690 10.568739 -26.637412 2.353741 -2.846369 0.521049 4.459545 -2.005101 -4.237189 0.000000 0.000000 0.000000 -0.309218 8.346755 -26.337199 -2.765468 -0.128010 -1.130312 1.896089 10.254661 2.318556 0.000000 0.000000 0.000000
-23.357712 84.186213 326.823453 1.739016 -8.416275 25.937330 -0.761676 -0.314317 -25.720349 -0.230060 -0.284923 0.058616 -0.047628 4.556433 -2.220887 0.000000 0.000000 0.000000 -0.611414 6.084333 0.278654 -1.694809 -3.957819 0.021879 -9.228694 30.326479 -1.060600 16.343523 -15.222258 8.629296 0.000000 0.000000 0.000000 0.000000 0.000000 0.000000 2.796704 4.886483 -2.341163 -1.263241 -0.252856 0.895774 13.735532 14.036626 -2.950815 -12.355795 -4.844084 0.316202 0.000000 0.000000 0.000000 0.000000 0.000000 0.000000 2.524064 11.813546 -25.982884 4.037684 -3.342562 0.822865 11.312210 -3.816944 -7.878002 0.000000 0.000000 0.000000 0.172294 8.988430 -25.612415 -2.831065 0.369690 -1.152440 -2.643648 12.953739 6.036512 0.000000 0.000000 0.000000
